<?xml version="1.0" encoding="UTF-8"?>
<svg xmlns="http://www.w3.org/2000/svg" viewBox="0 0 512 512" role="img" aria-label="Starlight">
  <defs>
    <linearGradient id="g" x1="0%" y1="0%" x2="100%" y2="100%">
      <stop offset="40%" stop-color="#ffb38a"/>
      <stop offset="100%" stop-color="#00d4ff"/>
    </linearGradient>
  </defs>
  <rect width="512" height="512" rx="96" fill="#08081a"/>
  <g fill="url(#g)" transform="translate(64 64) scale(6)">
    <circle cx="32" cy="32" r="8"/>
    <circle cx="32" cy="32" r="15" fill-opacity=".45"/>
    <rect x="30" y="4" width="4" height="56" rx="2"/>
    <rect x="4" y="30" width="56" height="4" rx="2"/>
    <rect x="31" y="11" width="2" height="42" rx="1" fill-opacity=".55"/>
    <rect x="11" y="31" width="42" height="2" rx="1" fill-opacity=".55"/>
    <rect x="31" y="14" width="2" height="18" rx="1" fill-opacity=".55" transform="rotate(45 32 32)"/>
    <rect x="31" y="32" width="2" height="18" rx="1" fill-opacity=".55" transform="rotate(45 32 32)"/>
    <rect x="31" y="14" width="2" height="18" rx="1" fill-opacity=".55" transform="rotate(-45 32 32)"/>
    <rect x="31" y="32" width="2" height="18" rx="1" fill-opacity=".55" transform="rotate(-45 32 32)"/>
  </g>
</svg>
